<svg width="47" height="38" viewBox="0 0 47 38" fill="none" xmlns="http://www.w3.org/2000/svg">
<path d="M36.675 14.9379L24.2541 27.3462C24.0402 27.5573 23.7889 27.6629 23.5 27.6629C23.2111 27.6629 22.9597 27.5573 22.7458 27.3462L10.325 14.9379C10.1139 14.7268 10.0083 14.474 10.0083 14.1796C10.0083 13.8823 10.1139 13.6282 10.325 13.4171L13.1041 10.6546C13.3152 10.4434 13.5666 10.3379 13.8583 10.3379C14.1472 10.3379 14.3986 10.4434 14.6125 10.6546L23.5 19.5421L32.3875 10.6546C32.6014 10.4434 32.8527 10.3379 33.1416 10.3379C33.4333 10.3379 33.6847 10.4434 33.8958 10.6546L36.675 13.4171C36.8861 13.6282 36.9916 13.8823 36.9916 14.1796C36.9916 14.474 36.8861 14.7268 36.675 14.9379Z" fill="white"/>
</svg>
