<svg width="208" height="69" viewBox="0 0 208 69" fill="none" xmlns="http://www.w3.org/2000/svg">
<path d="M54.75 31.6963L30.9792 7.92546C30.25 7.19629 29.2292 6.75879 28.2083 6.75879C27.1875 6.75879 26.1667 7.19629 25.4375 7.92546L20.3333 13.0296L26.3125 19.0088C26.8958 18.7171 27.4792 18.5713 28.2083 18.5713C30.6875 18.5713 32.5833 20.4671 32.5833 22.9463C32.5833 23.6755 32.4375 24.2588 32.1458 24.8421L37.9792 30.6755C38.5625 30.3838 39.1458 30.238 39.875 30.238C42.3542 30.238 44.25 32.1338 44.25 34.613C44.25 37.0921 42.3542 38.988 39.875 38.988C37.3958 38.988 35.5 37.0921 35.5 34.613C35.5 33.8838 35.6458 33.3005 35.9375 32.7171L30.1042 26.8838C29.9583 26.8838 29.8125 27.0296 29.6667 27.0296V42.1963C31.4167 42.7796 32.5833 44.3838 32.5833 46.2796C32.5833 48.7588 30.6875 50.6546 28.2083 50.6546C25.7292 50.6546 23.8333 48.7588 23.8333 46.2796C23.8333 44.3838 25 42.7796 26.75 42.1963V26.8838C25 26.3005 23.8333 24.6963 23.8333 22.8005C23.8333 22.0713 23.9792 21.488 24.2708 20.9046L18.2917 14.9255L1.66667 31.6963C0.9375 32.4255 0.5 33.4463 0.5 34.4671C0.5 35.488 0.9375 36.5088 1.66667 37.238L25.4375 61.0088C26.1667 61.738 27.1875 62.1755 28.2083 62.1755C29.2292 62.1755 30.25 61.738 30.9792 61.0088L54.75 37.238C55.4792 36.5088 55.9167 35.488 55.9167 34.4671C55.9167 33.4463 55.4792 32.4255 54.75 31.6963Z" fill="#F4511E"/>
<path d="M63.5639 24.2841C63.5639 24.2841 61.9069 23.0897 63.8953 21.4947L68.5282 17.3521C68.5282 17.3521 69.8538 15.9574 71.2554 17.1726L114.007 49.5403V65.0614C114.007 65.0614 113.987 67.4986 110.859 67.2293L63.5639 24.2841Z" fill="#2489CA"/>
<path d="M74.5833 34.2886L63.5639 44.3068C63.5639 44.3068 62.4316 45.1491 63.5639 46.6543L68.6801 51.3078C68.6801 51.3078 69.8952 52.6128 71.6904 51.1283L83.3726 42.27L74.5833 34.2886Z" fill="#1070B3"/>
<path d="M93.9294 34.3714L114.138 18.9401L114.007 3.50193C114.007 3.50193 113.144 0.132595 110.265 1.88631L83.3726 26.3623L93.9294 34.3714Z" fill="#0877B9"/>
<path d="M110.859 67.2501C112.033 68.4514 113.455 68.0579 113.455 68.0579L129.204 60.2973C131.22 58.9234 130.937 57.218 130.937 57.218V10.8758C130.937 8.83902 128.852 8.13477 128.852 8.13477L115.202 1.5549C112.219 -0.288572 110.265 1.88631 110.265 1.88631C110.265 1.88631 112.778 0.0773609 114.007 3.50193V64.7783C114.007 65.1995 113.918 65.6137 113.738 65.9866C113.379 66.7115 112.599 67.3881 110.728 67.1051L110.859 67.2501Z" fill="#3C99D4"/>
<path d="M172.815 0.460938C153.562 0.460938 137.95 16.071 137.95 35.3276C137.95 50.7329 147.94 63.8023 161.793 68.4128C163.535 68.7355 164.175 67.6564 164.175 66.7354C164.175 65.9041 164.143 63.1573 164.128 60.2439C154.428 62.353 152.382 56.1301 152.382 56.1301C150.796 52.0999 148.511 51.0285 148.511 51.0285C145.347 48.8644 148.749 48.9087 148.749 48.9087C152.25 49.1548 154.094 52.5019 154.094 52.5019C157.203 57.8323 162.25 56.2911 164.239 55.4005C164.552 53.1467 165.456 51.6088 166.453 50.7381C158.709 49.8562 150.568 46.8665 150.568 33.5067C150.568 29.7002 151.93 26.5897 154.161 24.148C153.799 23.2697 152.605 19.7236 154.498 14.9209C154.498 14.9209 157.426 13.9838 164.089 18.4949C166.869 17.7221 169.852 17.3349 172.815 17.3218C175.778 17.3349 178.763 17.7221 181.549 18.4949C188.204 13.9838 191.127 14.9209 191.127 14.9209C193.025 19.7236 191.831 23.2697 191.469 24.148C193.705 26.5897 195.057 29.7 195.057 33.5067C195.057 46.8983 186.901 49.8472 179.138 50.7102C180.388 51.7923 181.502 53.9143 181.502 57.167C181.502 61.8321 181.462 65.5869 181.462 66.7354C181.462 67.6632 182.09 68.7505 183.857 68.4081C197.702 63.7925 207.679 50.7277 207.679 35.3276C207.679 16.071 192.07 0.460938 172.815 0.460938Z" fill="#161614"/>
<path d="M151.008 50.1294C150.932 50.3025 150.659 50.3545 150.411 50.2358C150.158 50.122 150.016 49.8858 150.098 49.7118C150.173 49.5335 150.446 49.4838 150.698 49.6035C150.952 49.717 151.096 49.9555 151.008 50.1294ZM152.723 51.6596C152.557 51.8139 152.232 51.7422 152.011 51.4986C151.783 51.2555 151.741 50.9306 151.909 50.7739C152.081 50.62 152.396 50.6919 152.625 50.9353C152.853 51.1811 152.897 51.5038 152.723 51.6596ZM153.9 53.6176C153.686 53.7661 153.337 53.6269 153.121 53.3168C152.907 53.007 152.907 52.6351 153.126 52.486C153.342 52.337 153.686 52.471 153.905 52.7786C154.118 53.0939 154.119 53.4655 153.9 53.6176ZM155.89 55.8853C155.698 56.0959 155.292 56.0396 154.994 55.7519C154.689 55.4708 154.604 55.0718 154.796 54.861C154.989 54.6499 155.398 54.7092 155.698 54.9944C156.001 55.275 156.093 55.677 155.89 55.8853ZM158.461 56.651C158.377 56.9239 157.985 57.048 157.59 56.9321C157.196 56.8126 156.938 56.4927 157.017 56.2168C157.099 55.9419 157.493 55.8126 157.891 55.9367C158.285 56.0557 158.543 56.3732 158.461 56.651ZM161.388 56.9756C161.398 57.2633 161.063 57.5017 160.648 57.5069C160.231 57.5159 159.894 57.2832 159.89 57.0005C159.89 56.7101 160.217 56.4738 160.634 56.467C161.048 56.4588 161.388 56.6898 161.388 56.9756ZM164.263 56.8654C164.313 57.1459 164.024 57.4342 163.613 57.5107C163.208 57.5846 162.834 57.4115 162.782 57.1334C162.732 56.8457 163.025 56.5577 163.429 56.4831C163.841 56.4114 164.21 56.5802 164.263 56.8654Z" fill="#161614"/>
</svg>
