<svg width="1161" height="90" viewBox="0 0 1161 90" fill="none" xmlns="http://www.w3.org/2000/svg">
<path d="M533.123 51.1063C533.423 52.1174 533.572 53.1045 533.572 54.0677C533.572 55.0249 533.423 56.0091 533.123 57.0201C532.824 58.0312 532.307 58.9465 531.571 59.7662C530.841 60.5798 529.971 60.9866 528.959 60.9866C527.948 60.9866 527.078 60.5798 526.348 59.7662C525.612 58.9465 525.095 58.0312 524.796 57.0201C524.496 56.0091 524.347 55.0249 524.347 54.0677C524.347 53.1045 524.496 52.1174 524.796 51.1063C525.095 50.1012 525.612 49.1888 526.348 48.3692C527.078 47.5496 527.948 47.1398 528.959 47.1398C529.971 47.1398 530.841 47.5496 531.571 48.3692C532.307 49.1888 532.824 50.1012 533.123 51.1063ZM556.204 51.1063C556.504 52.1174 556.653 53.1045 556.653 54.0677C556.653 55.0249 556.504 56.0091 556.204 57.0201C555.899 58.0312 555.382 58.9465 554.652 59.7662C553.916 60.5798 553.046 60.9866 552.041 60.9866C551.029 60.9866 550.156 60.5798 549.42 59.7662C548.69 58.9465 548.176 58.0312 547.877 57.0201C547.571 56.0091 547.419 55.0249 547.419 54.0677C547.419 53.1045 547.571 52.1174 547.877 51.1063C548.176 50.1012 548.69 49.1888 549.42 48.3692C550.156 47.5496 551.029 47.1398 552.041 47.1398C553.046 47.1398 553.916 47.5496 554.652 48.3692C555.382 49.1888 555.899 50.1012 556.204 51.1063ZM562.423 54.0677C562.423 51.1841 561.592 48.7312 559.929 46.709C558.271 44.6929 556.025 43.6848 553.189 43.6848C552.202 43.6848 549.86 43.9361 546.163 44.4386C544.452 44.7019 542.564 44.8335 540.5 44.8335C538.43 44.8335 536.542 44.7019 534.837 44.4386C531.182 43.9361 528.84 43.6848 527.811 43.6848C524.969 43.6848 522.72 44.6929 521.062 46.709C519.405 48.7312 518.577 51.1841 518.577 54.0677C518.577 56.1796 518.962 58.0222 519.734 59.5957C520.5 61.1751 521.472 62.4135 522.651 63.3109C523.829 64.2143 525.295 64.9352 527.048 65.4736C528.801 66.018 530.485 66.374 532.1 66.5415C533.71 66.709 535.499 66.7928 537.467 66.7928H543.524C545.499 66.7928 547.29 66.709 548.9 66.5415C550.509 66.374 552.193 66.018 553.952 65.4736C555.705 64.9352 557.171 64.2143 558.349 63.3109C559.528 62.4135 560.5 61.1751 561.266 59.5957C562.038 58.0222 562.423 56.1796 562.423 54.0677ZM570.5 47.7231C570.5 52.6947 569.767 56.6702 568.301 59.6495C567.386 61.5041 566.118 63.1045 564.496 64.4506C562.875 65.7967 561.179 66.8287 559.408 67.5466C557.643 68.2705 555.6 68.8419 553.279 69.2606C550.958 69.6854 548.897 69.9516 547.096 70.0593C545.295 70.167 543.288 70.2209 541.074 70.2209C539.202 70.2209 537.497 70.1849 535.959 70.1132C534.416 70.0414 532.642 69.8888 530.638 69.6555C528.627 69.4282 526.794 69.0692 525.137 68.5786C523.479 68.088 521.834 67.4688 520.201 66.721C518.568 65.9732 517.114 65.001 515.84 63.8045C514.565 62.6019 513.53 61.217 512.735 59.6495C511.245 56.6941 510.5 52.7186 510.5 47.7231C510.5 42.0216 512.133 37.2624 515.4 33.4455C514.754 31.4712 514.431 29.4252 514.431 27.3073C514.431 24.5194 515.044 21.902 516.27 19.4551C518.867 19.4551 521.149 19.9277 523.117 20.873C525.092 21.8242 527.365 23.3079 529.938 25.3241C533.467 24.4865 537.18 24.0677 541.074 24.0677C544.634 24.0677 547.999 24.4506 551.17 25.2164C553.695 23.2481 555.941 21.7943 557.91 20.855C559.884 19.9217 562.157 19.4551 564.73 19.4551C565.956 21.902 566.569 24.5194 566.569 27.3073C566.569 29.4012 566.243 31.4204 565.591 33.3647C568.864 37.2116 570.5 41.9977 570.5 47.7231Z" fill="white"/>
<path d="M591.239 34.7941H604.132V73.5107H591.239V34.7941ZM604.958 22.8447C604.984 24.7439 604.326 26.3319 602.984 27.6089C601.642 28.8858 599.876 29.5243 597.685 29.5243H597.607C595.475 29.5243 593.757 28.8858 592.454 27.6089C591.151 26.3319 590.5 24.7439 590.5 22.8447C590.5 20.9131 591.171 19.3185 592.513 18.061C593.854 16.797 595.605 16.165 597.763 16.165C599.928 16.165 601.662 16.797 602.965 18.061C604.268 19.3185 604.932 20.9131 604.958 22.8447ZM650.5 51.323V73.5107H637.656V52.8009C637.656 50.072 637.128 47.9297 636.071 46.3741C635.015 44.8249 633.368 44.0503 631.132 44.0503C629.486 44.0503 628.111 44.5008 627.009 45.4018C625.901 46.3028 625.075 47.4177 624.53 48.7465C624.238 49.5243 624.093 50.5776 624.093 51.9064V73.5107H611.239C611.297 63.1202 611.326 54.6936 611.326 48.2312C611.326 41.7752 611.31 37.9216 611.278 36.6706L611.239 34.7941H624.093V40.4237H624.015C624.54 39.5875 625.075 38.8583 625.619 38.236C626.164 37.6073 626.899 36.9299 627.826 36.2039C628.753 35.4715 629.887 34.9043 631.229 34.5024C632.571 34.1005 634.062 33.8996 635.702 33.8996C640.155 33.8996 643.736 35.3775 646.446 38.3332C649.149 41.289 650.5 45.6189 650.5 51.323Z" fill="white"/>
</svg>
