<svg width="53" height="59" viewBox="0 0 53 59" fill="none" xmlns="http://www.w3.org/2000/svg">
<path d="M52.4681 17.1543C52.4681 16.1783 52.2601 15.2983 51.8281 14.5623C51.4121 13.8263 50.7881 13.2183 49.9561 12.7383C43.0441 8.75428 36.1161 4.77028 29.2041 0.786277C27.3321 -0.285722 25.5401 -0.253722 23.6841 0.834278C20.9321 2.45028 7.1401 10.3543 3.0441 12.7383C1.3481 13.7143 0.532104 15.2183 0.532104 17.1703C0.532104 25.1863 0.532104 33.2183 0.532104 41.2343C0.532104 42.1943 0.740104 43.0423 1.1401 43.7783C1.5561 44.5303 2.1961 45.1703 3.0441 45.6663C7.1561 48.0503 20.9321 55.9383 23.6841 57.5703C25.5401 58.6583 27.3481 58.7063 29.2041 57.6183C36.1161 53.6183 43.0441 49.6503 49.9561 45.6663C50.8201 45.1703 51.4441 44.5463 51.8601 43.7783C52.2601 43.0423 52.4681 42.1943 52.4681 41.2343C52.4681 41.2183 52.4681 25.1703 52.4681 17.1543Z" fill="#5C8DBC"/>
<path d="M26.5641 29.1063L1.1081 43.7623C1.5241 44.5143 2.1641 45.1543 3.0121 45.6503C7.1241 48.0343 20.9001 55.9223 23.6521 57.5543C25.5081 58.6423 27.3161 58.6903 29.1721 57.6023C36.0841 53.6023 43.0121 49.6343 49.9241 45.6503C50.7881 45.1543 51.4121 44.5303 51.8281 43.7623L26.5641 29.1063Z" fill="#1A4674"/>
<path d="M19.0281 33.4423C20.5161 36.0343 23.3001 37.7783 26.4841 37.7783C29.7001 37.7783 32.5001 36.0183 33.9721 33.3943L26.5641 29.1063L19.0281 33.4423Z" fill="#1A4674"/>
<path d="M52.4681 17.1543C52.4681 16.1783 52.2601 15.2983 51.8281 14.5623L26.5641 29.1063L51.8601 43.7623C52.2601 43.0263 52.4681 42.1783 52.4681 41.2183C52.4681 41.2183 52.4681 25.1703 52.4681 17.1543Z" fill="#1B598E"/>
<path d="M51.0761 30.1623H49.0921V32.1303H47.1241V30.1623H45.1401V28.1783H47.1241V26.2103H49.0921V28.1783H51.0761V30.1623Z" fill="white"/>
<path d="M43.8601 30.1623H41.8761V32.1303H39.9081V30.1623H37.9241V28.1783H39.9081V26.2103H41.8761V28.1783H43.8601V30.1623Z" fill="white"/>
<path d="M33.9721 33.3943C32.5001 36.0023 29.7001 37.7783 26.4841 37.7783C23.2841 37.7783 20.5001 36.0343 19.0281 33.4423C18.3081 32.1783 17.8921 30.7383 17.8921 29.1863C17.8921 24.4343 21.7321 20.5943 26.4841 20.5943C29.6521 20.5943 32.4201 22.3223 33.9081 24.8823L41.4121 20.5623C38.4201 15.4103 32.8521 11.9383 26.4681 11.9383C16.9321 11.9383 9.22011 19.6663 9.22011 29.1863C9.22011 32.3063 10.0521 35.2503 11.5081 37.7783C14.4841 42.9463 20.0841 46.4343 26.4841 46.4343C32.9001 46.4343 38.5001 42.9303 41.4761 37.7303L33.9721 33.3943Z" fill="white"/>
</svg>
